<svg xmlns="http://www.w3.org/2000/svg" viewBox="0 0 500 500" width="100%" height="100%">
  <defs>
    <linearGradient id="g_rakhi2" x1="0%" y1="0%" x2="100%" y2="100%">
      <stop offset="0%" stop-color="#FFE066"/>
      <stop offset="50%" stop-color="#FF9933"/>
      <stop offset="100%" stop-color="#DAA520"/>
    </linearGradient>
    <radialGradient id="gem_rakhi2" cx="30%" cy="30%" r="70%">
      <stop offset="0%" stop-color="#FFFFFF"/>
      <stop offset="40%" stop-color="#4A0E17"/>
      <stop offset="100%" stop-color="#2C0000"/>
    </radialGradient>
    <filter id="sh_rakhi2" x="-20%" y="-20%" width="140%" height="140%">
      <feDropShadow dx="0" dy="6" stdDeviation="8" flood-color="#000000" flood-opacity="0.5"/>
    </filter>
  </defs>

  <g stroke="url(#g_rakhi2)" stroke-width="8" stroke-linecap="round">
    <path d="M0,250 C80,230 150,270 250,250" fill="none" stroke="#4A0E17" stroke-width="6"/>
    <path d="M0,250 C80,270 150,230 250,250" fill="none" stroke="#FF9933" stroke-width="6"/>
    <path d="M250,250 C350,230 420,270 500,250" fill="none" stroke="#4A0E17" stroke-width="6"/>
    <path d="M250,250 C350,270 420,230 500,250" fill="none" stroke="#FF9933" stroke-width="6"/>
  </g>

  <g fill="url(#g_rakhi2)">
    <circle cx="100" cy="250" r="10"/>
    <circle cx="130" cy="250" r="7"/>
    <circle cx="155" cy="250" r="5"/>
    <circle cx="400" cy="250" r="10"/>
    <circle cx="370" cy="250" r="7"/>
    <circle cx="345" cy="250" r="5"/>
  </g>

  <g filter="url(#sh_rakhi2)">
    <circle cx="250" cy="250" r="110" fill="url(#g_rakhi2)"/>
    <circle cx="250" cy="250" r="95" fill="#4A0E17"/>
    
    <g stroke="url(#g_rakhi2)" stroke-width="3" fill="none">
      <circle cx="250" cy="250" r="85" stroke-dasharray="10 6"/>
      <circle cx="250" cy="250" r="70"/>
    </g>

    <g stroke="#FFD700" stroke-width="3" fill="none"><circle cx="250" cy="250" r="55"/><path d="M250,180 L250,320 M180,250 L320,250 M200,200 L300,300 M200,300 L300,200"/></g>

    <circle cx="250" cy="250" r="28" fill="url(#gem_rakhi2)"/>
    <circle cx="242" cy="242" r="7" fill="#FFFFFF" opacity="0.8"/>
  </g>
</svg>