<svg xmlns="http://www.w3.org/2000/svg" viewBox="0 0 500 500" width="100%" height="100%">
  <defs>
    <linearGradient id="g_rakhi5" x1="0%" y1="0%" x2="100%" y2="100%">
      <stop offset="0%" stop-color="#FFE066"/>
      <stop offset="50%" stop-color="#FFD700"/>
      <stop offset="100%" stop-color="#DAA520"/>
    </linearGradient>
    <radialGradient id="gem_rakhi5" cx="30%" cy="30%" r="70%">
      <stop offset="0%" stop-color="#FFFFFF"/>
      <stop offset="40%" stop-color="#E85D75"/>
      <stop offset="100%" stop-color="#2C0000"/>
    </radialGradient>
    <filter id="sh_rakhi5" x="-20%" y="-20%" width="140%" height="140%">
      <feDropShadow dx="0" dy="6" stdDeviation="8" flood-color="#000000" flood-opacity="0.5"/>
    </filter>
  </defs>

  <g stroke="url(#g_rakhi5)" stroke-width="8" stroke-linecap="round">
    <path d="M0,250 C80,230 150,270 250,250" fill="none" stroke="#E85D75" stroke-width="6"/>
    <path d="M0,250 C80,270 150,230 250,250" fill="none" stroke="#FFD700" stroke-width="6"/>
    <path d="M250,250 C350,230 420,270 500,250" fill="none" stroke="#E85D75" stroke-width="6"/>
    <path d="M250,250 C350,270 420,230 500,250" fill="none" stroke="#FFD700" stroke-width="6"/>
  </g>

  <g fill="url(#g_rakhi5)">
    <circle cx="100" cy="250" r="10"/>
    <circle cx="130" cy="250" r="7"/>
    <circle cx="155" cy="250" r="5"/>
    <circle cx="400" cy="250" r="10"/>
    <circle cx="370" cy="250" r="7"/>
    <circle cx="345" cy="250" r="5"/>
  </g>

  <g filter="url(#sh_rakhi5)">
    <circle cx="250" cy="250" r="110" fill="url(#g_rakhi5)"/>
    <circle cx="250" cy="250" r="95" fill="#E85D75"/>
    
    <g stroke="url(#g_rakhi5)" stroke-width="3" fill="none">
      <circle cx="250" cy="250" r="85" stroke-dasharray="10 6"/>
      <circle cx="250" cy="250" r="70"/>
    </g>

    <g fill="#E85D75" opacity="0.9"><path d="M250,170 Q280,210 250,250 Q220,210 250,170 Z"/><path d="M250,330 Q280,290 250,250 Q220,290 250,330 Z"/><path d="M170,250 Q210,280 250,250 Q210,220 170,250 Z"/><path d="M330,250 Q290,280 250,250 Q290,220 330,250 Z"/></g>

    <circle cx="250" cy="250" r="28" fill="url(#gem_rakhi5)"/>
    <circle cx="242" cy="242" r="7" fill="#FFFFFF" opacity="0.8"/>
  </g>
</svg>